<svg preserveAspectRatio="none" overflow="visible" style="display: block;" width="40" height="40" viewBox="0 0 40 40" fill="none" xmlns="http://www.w3.org/2000/svg">
<g id="ix:health-filled">
<path id="Vector" fill-rule="evenodd" clip-rule="evenodd" d="M19.4499 8.43492C15.9496 4.09055 9.69609 3.82906 5.88336 7.86766C3.21211 10.6971 2.51766 14.8274 3.79992 18.3334H10.635L15 9.60656L20 19.605L22.5 14.6066L24.3634 18.3334H36.2002C37.4824 14.8275 36.788 10.6971 34.1168 7.86766C30.304 3.82914 24.0505 4.09055 20.5502 8.43492L20.0001 9.11766L19.4499 8.43492ZM34.1609 21.6666H22.6967L20 27.0601L15 17.06L12.6967 21.6666H5.83922C5.85385 21.6824 5.86857 21.6981 5.88336 21.7138L19.993 36.6591L19.9999 36.6666H20L34.1167 21.7138C34.1315 21.6981 34.1462 21.6824 34.1609 21.6666" fill="white"/>
</g>
</svg>
